<?xml version="1.0" encoding="UTF-8"?>
<svg version="1.1" xmlns="http://www.w3.org/2000/svg" width="512" height="512">
<path d="M0 0 C1.15527522 -0.00297112 2.31055043 -0.00594224 3.50083399 -0.0090034 C6.68992502 -0.01615023 9.8789831 -0.0188601 13.0680809 -0.01960087 C16.51477402 -0.02146042 19.96145567 -0.02901228 23.40814209 -0.03573608 C30.93742655 -0.04928415 38.46670567 -0.05533878 45.99600029 -0.05974674 C50.70386237 -0.06251547 55.41172242 -0.06675399 60.11958313 -0.07125092 C73.17270529 -0.08343961 86.22582583 -0.0937393 99.27895355 -0.09712601 C100.11344919 -0.09734557 100.94794482 -0.09756514 101.8077282 -0.09779136 C102.64414128 -0.09800964 103.48055436 -0.09822791 104.34231329 -0.09845281 C106.03700606 -0.09889626 107.73169883 -0.09934282 109.4263916 -0.09979248 C110.68731203 -0.10012463 110.68731203 -0.10012463 111.97370559 -0.10046348 C125.58091746 -0.10440772 139.18807565 -0.12185209 152.79526681 -0.145152 C166.78967303 -0.16892006 180.78405238 -0.18133035 194.7784791 -0.18249393 C202.62604607 -0.18340769 210.4735431 -0.18908432 218.3210907 -0.20731354 C225.00615142 -0.22278843 231.6911206 -0.2277918 238.37619585 -0.21957543 C241.78079196 -0.21569466 245.18505577 -0.21813579 248.58965302 -0.23063278 C276.76826705 -0.32795063 300.55191205 2.92774166 321.6373291 23.32012939 C337.11624447 39.33127107 342.52189049 60.07933751 342.5043335 81.77655029 C342.50879018 83.50946312 342.50879018 83.50946312 342.5133369 85.27738428 C342.52048372 88.46647531 342.5231936 91.65553339 342.52393436 94.8446312 C342.52579391 98.29132431 342.53334578 101.73800596 342.54006958 105.18469238 C342.55361765 112.71397685 342.55967228 120.24325596 342.56408024 127.77255058 C342.56684897 132.48041267 342.57108749 137.18827272 342.57558441 141.89613342 C342.5877731 154.94925558 342.5980728 168.00237612 342.6014595 181.05550385 C342.60167907 181.88999948 342.60189864 182.72449511 342.60212485 183.58427849 C342.60234313 184.42069157 342.60256141 185.25710465 342.6027863 186.11886358 C342.60322976 187.81355635 342.60367632 189.50824912 342.60412598 191.20294189 C342.60434741 192.04355551 342.60456884 192.88416913 342.60479698 193.75025588 C342.60874121 207.35746775 342.62618559 220.96462595 342.6494855 234.5718171 C342.67325355 248.56622332 342.68566385 262.56060267 342.68682742 276.55502939 C342.68774119 284.40259636 342.69341782 292.2500934 342.71164703 300.09764099 C342.72712193 306.78270171 342.7321253 313.46767089 342.72390893 320.15274614 C342.72002816 323.55734225 342.72246929 326.96160606 342.73496628 330.36620331 C342.81901433 354.70251698 341.48134128 376.61530285 325.3638916 396.14044189 C324.45703613 397.30833252 324.45703613 397.30833252 323.53186035 398.49981689 C312.56763839 411.88770897 296.10850823 419.87580757 279.3638916 423.14044189 C275.13866081 423.52893909 270.94955454 423.55099577 266.70854187 423.52812195 C264.88368955 423.53620025 264.88368955 423.53620025 263.02197152 423.54444176 C259.68019864 423.55618802 256.33893061 423.55469079 252.99717891 423.54727495 C249.37945928 423.54251475 245.76179139 423.55507821 242.14408875 423.56529236 C235.07002647 423.58243075 227.99605321 423.58333064 220.92197558 423.57807945 C215.16770941 423.5740269 209.41346941 423.57549416 203.65920448 423.58082771 C202.83810356 423.58157614 202.01700263 423.58232456 201.17101986 423.58309566 C199.50257823 423.58462725 197.83413661 423.58616559 196.16569499 423.58771063 C180.54215554 423.60141797 164.91866625 423.59601063 149.29512797 423.58452541 C135.027884 423.57459703 120.7607698 423.58753001 106.49354585 423.61145961 C91.81534897 423.63589145 77.13721243 423.64544832 62.45899564 423.63880688 C54.22977348 423.63532345 46.00065102 423.63748848 37.77144432 423.65505791 C30.76545723 423.6698312 23.75964005 423.67034887 16.75365611 423.652987 C13.18511349 423.64451613 9.61687373 423.64223028 6.04834747 423.65763855 C-19.93354846 423.76188131 -40.90194045 420.19788484 -60.2064209 401.59356689 C-77.34698046 384.17201456 -81.80528366 362.05563014 -81.76982117 338.44728088 C-81.77208672 337.32211081 -81.77435228 336.19694074 -81.77668649 335.03767461 C-81.7829795 331.29498286 -81.78220016 327.55232777 -81.78137207 323.80963135 C-81.7843665 321.11479052 -81.78774179 318.41995248 -81.79154968 315.72511292 C-81.79982457 309.18066587 -81.80260309 302.63622783 -81.80316206 296.09177599 C-81.80363873 290.76704093 -81.80570101 285.44230882 -81.80886269 280.11757469 C-81.8176607 264.99045559 -81.82228341 249.86334356 -81.82153221 234.73622189 C-81.82149226 233.92223412 -81.8214523 233.10824635 -81.82141113 232.26959229 C-81.82137025 231.45460009 -81.82132937 230.6396079 -81.82128725 229.79991897 C-81.82088104 216.60030152 -81.83044646 203.40071262 -81.8445495 190.20110343 C-81.85894678 176.61792684 -81.86581784 163.03476415 -81.86495572 149.45157975 C-81.86462491 141.83770076 -81.86732121 134.22385171 -81.87813377 126.60997963 C-81.88728302 120.12629194 -81.88937798 113.64264777 -81.88262435 107.15895639 C-81.87938128 103.85770354 -81.88032956 100.55655041 -81.8879776 97.25530243 C-81.94923739 68.9664126 -80.24018665 43.80691793 -59.6361084 22.14044189 C-42.88537604 5.93696357 -22.80606113 -0.01845425 0 0 Z M62.3638916 66.14044189 C61.31330566 66.69602783 60.26271973 67.25161377 59.18029785 67.82403564 C41.82207873 77.4367546 26.42056391 91.48411562 14.3638916 107.14044189 C13.16506348 108.59837158 13.16506348 108.59837158 11.9420166 110.08575439 C-6.94463343 133.25662014 -17.54741101 162.58232615 -20.6361084 192.14044189 C-20.74696777 193.19102783 -20.85782715 194.24161377 -20.9720459 195.32403564 C-24.85282909 238.16997984 -15.00913938 283.20624166 12.3638916 317.14044189 C14.87144318 320.05340601 17.43237884 322.88903703 20.0670166 325.68731689 C22.06708074 327.82343981 23.93785323 330.01144786 25.8013916 332.26544189 C30.11093821 337.20933765 35.21177668 341.11556823 40.3638916 345.14044189 C41.21080566 345.84942627 42.05771973 346.55841064 42.93029785 347.28887939 C63.27503583 363.69497087 88.68857314 372.71157992 114.3638916 376.14044189 C115.70967285 376.33573486 115.70967285 376.33573486 117.0826416 376.53497314 C155.9795428 381.15090288 198.08003044 372.19052257 229.3638916 348.01544189 C249.14444431 332.22759957 263.33053728 313.02071587 274.2388916 290.32794189 C274.79298706 289.1820459 274.79298706 289.1820459 275.35827637 288.01300049 C279.18057197 279.84034634 281.93928709 271.86008036 281.8013916 262.76544189 C281.78785645 261.66981934 281.78785645 261.66981934 281.77404785 260.55206299 C281.37060743 247.79045785 276.13153987 237.62474257 266.93811035 228.81622314 C257.36014998 220.75762818 246.38501862 216.53457676 233.77404785 216.89044189 C221.47363629 218.16633548 209.76599385 222.89284508 201.3638916 232.14044189 C197.35091093 237.42907205 194.3121732 243.15682883 191.4354248 249.11505127 C184.37345571 263.72767157 175.11816262 274.88101852 159.44421387 280.49078369 C142.16320649 286.23241943 122.76892476 286.24226123 106.0513916 278.63262939 C89.3523469 269.47371457 78.50037432 255.1248354 73.1138916 237.01544189 C66.8018065 214.61271361 69.80686054 190.21775501 81.1138916 170.01544189 C90.08624068 155.76926931 102.78909804 146.02767663 118.96936035 141.39434814 C135.94859166 137.66970588 153.83243426 139.819686 168.9342041 148.48028564 C174.36137425 152.18856107 178.41017921 156.10435538 182.3013916 161.39044189 C182.73322754 161.96036865 183.16506348 162.53029541 183.60998535 163.11749268 C185.51505777 165.63420106 187.38373433 168.16838112 189.21154785 170.74200439 C196.45095079 180.70260134 206.35517664 186.61087231 218.49279785 188.67169189 C231.8293935 190.08399083 245.12859015 187.97663049 256.0513916 179.89044189 C265.64085677 171.90767724 272.72832955 161.79924409 274.3638916 149.14044189 C276.14139359 128.65814973 265.79117993 114.24630526 253.3638916 99.14044189 C227.12613074 68.41725444 191.04693977 50.86913999 150.9498291 47.45294189 C119.9338879 45.17178617 89.70956998 51.42368016 62.3638916 66.14044189 Z " fill="#4ECA84" transform="translate(125.6361083984375,43.85955810546875)"/>
<path d="M0 0 C1.29259572 -0.00382555 2.58519144 -0.00765109 3.91695672 -0.01159257 C7.47554402 -0.02181017 11.03402988 -0.01970679 14.59262526 -0.01541197 C18.4421372 -0.01293327 22.29162543 -0.02197316 26.14112854 -0.02944946 C33.67218529 -0.04216771 41.20320634 -0.04399367 48.73427203 -0.0416492 C54.86040202 -0.03986233 60.98652122 -0.04162359 67.11264992 -0.04587364 C67.98632948 -0.04646883 68.86000903 -0.04706402 69.76016373 -0.04767724 C71.53538415 -0.04888907 73.31060458 -0.0501032 75.085825 -0.05131962 C91.71705453 -0.06218451 108.34826376 -0.0600379 124.97949443 -0.05393478 C140.16758213 -0.04876899 155.35560563 -0.06001401 170.54368063 -0.07903299 C186.16540362 -0.0984439 201.78709629 -0.10666154 217.40883142 -0.10290974 C226.16849239 -0.10100232 234.92809877 -0.10344019 243.68774986 -0.11762428 C251.14678467 -0.12958074 258.60573127 -0.13089558 266.06476738 -0.11883412 C269.86425826 -0.11297463 273.66358817 -0.11176384 277.46306801 -0.12383652 C313.93931029 -0.2319023 343.67761749 7.34801909 370.37532043 33.38569641 C388.31777406 51.4595302 401.84759932 77.95881846 401.8817482 103.87376213 C401.88558934 104.97311085 401.88943049 106.07245956 401.89338803 107.20512187 C401.89252155 108.40237962 401.89165507 109.59963737 401.89076233 110.83317566 C401.89521901 112.75341039 401.89521901 112.75341039 401.89976573 114.71243775 C401.90781387 118.25949162 401.90962409 121.80652523 401.9103632 125.35358715 C401.91221765 129.18204984 401.91976713 133.0105021 401.92649841 136.83895874 C401.94006843 145.20924407 401.94610486 153.57952459 401.95050907 161.94981909 C401.9532747 167.18130564 401.95751273 172.41279036 401.96201324 177.64427567 C401.97420597 192.14191255 401.98450411 206.63954796 401.98788834 221.13718987 C401.9881079 222.06475169 401.98832747 222.99231351 401.98855369 223.94798327 C401.98877197 224.87771594 401.98899024 225.80744861 401.98921514 226.76535499 C401.98965859 228.6492188 401.99010516 230.53308261 401.99055481 232.41694641 C401.99077624 233.35140009 401.99099767 234.28585377 401.99122581 235.24862422 C401.99516938 250.37236121 402.01260993 265.4960499 402.03591433 280.61976825 C402.05967305 296.16448796 402.0720923 311.70918348 402.07325625 327.25392163 C402.07417067 335.97453831 402.07986358 344.6950921 402.09807587 353.41569138 C402.11353823 360.84556327 402.11856148 368.27535285 402.11033776 375.70523779 C402.10645237 379.49052178 402.10725633 383.27564032 402.12139511 387.06090355 C402.18301274 404.55770138 402.21308154 421.33665004 396.00032043 437.94819641 C395.7442804 438.64896301 395.48824036 439.34972961 395.22444153 440.07173157 C384.70098078 467.95033915 362.90429044 490.22790966 336.25032043 503.07319641 C321.07458094 509.50862278 305.97542259 512.57436342 289.49427795 512.52139282 C288.21307847 512.52521837 286.93187898 512.52904392 285.61185527 512.53298539 C282.08973165 512.54318867 278.5677107 512.54110336 275.04557896 512.5368048 C271.23357635 512.53432347 267.42159758 512.54336915 263.60960388 512.55084229 C256.15421666 512.56355292 248.69886551 512.56538749 241.24346927 512.56304202 C235.17886202 512.56125444 229.11426567 512.56301791 223.04965973 512.56726646 C222.18444175 512.56786165 221.31922376 512.56845684 220.42778705 512.56907007 C218.66971916 512.5702819 216.91165127 512.57149604 215.15358338 512.57271244 C198.68783124 512.58357421 182.2220996 512.58143209 165.75634632 512.5753276 C150.72028531 512.57016097 135.68428914 512.5814096 120.64824095 512.60042582 C105.18016793 512.61983723 89.71212553 512.62805435 74.24404025 512.62430257 C65.57158445 512.62239536 56.89918379 512.62483094 48.22673798 512.63901711 C40.84275262 512.65097415 33.45885635 512.65228767 26.07486966 512.64022694 C22.31385131 512.63436813 18.55299557 512.63315479 14.79198837 512.64522934 C-21.84686591 512.75469275 -52.19402541 505.13537598 -78.93717957 479.01069641 C-99.32848073 458.32202211 -110.59248214 431.02075309 -110.5171051 401.98651123 C-110.52163622 400.69124309 -110.52616733 399.39597495 -110.53083575 398.06145626 C-110.54298003 394.49533357 -110.5428155 390.9293053 -110.540447 387.36316669 C-110.54003663 383.50543287 -110.55109889 379.64772844 -110.56056213 375.79000854 C-110.57712671 368.2422424 -110.58266965 360.6945075 -110.58378689 353.14672469 C-110.58473966 347.00583262 -110.58886138 340.86495079 -110.59518814 334.72406197 C-110.6127893 317.2828943 -110.62202895 299.84175117 -110.62052719 282.40057456 C-110.62044728 281.46165842 -110.62036737 280.52274229 -110.62028503 279.55537415 C-110.62020327 278.61530075 -110.62012151 277.67522736 -110.62003727 276.70666689 C-110.61922502 261.48434748 -110.63835031 246.26212717 -110.66656177 231.0398364 C-110.69535378 215.37968235 -110.70909855 199.71957653 -110.70737422 184.05939537 C-110.70671242 175.27952865 -110.71211172 166.49976578 -110.73373032 157.71992302 C-110.75202563 150.24226345 -110.75622154 142.7647548 -110.74271147 135.28708243 C-110.73622321 131.47919433 -110.73591244 127.67159504 -110.75341797 123.8637352 C-110.89504838 90.96722227 -105.00529898 63.70450023 -83.24967957 38.26069641 C-82.77272644 37.65096985 -82.29577332 37.04124329 -81.80436707 36.41304016 C-77.36578302 30.84578761 -71.86317536 26.59243113 -66.24967957 22.26069641 C-65.46721863 21.65096985 -64.68475769 21.04124329 -63.87858582 20.41304016 C-45.22256099 6.60191892 -23.0601235 -0.07320745 0 0 Z M-44.24967957 28.26069641 C-45.23581238 28.80468079 -46.22194519 29.34866516 -47.23796082 29.90913391 C-69.593163 43.17343622 -86.28285125 66.36037949 -93.24967957 91.26069641 C-93.62980493 92.59194266 -93.62980493 92.59194266 -94.0176096 93.95008278 C-97.130686 106.87576485 -96.68571175 119.98087217 -96.65651262 133.19991684 C-96.65173856 136.84829669 -96.66432782 140.49662596 -96.67453003 144.14498901 C-96.69164103 151.27345389 -96.69257416 158.40183032 -96.68731713 165.53031038 C-96.68325984 171.32977738 -96.68473738 177.12921845 -96.69006538 182.92868423 C-96.69081381 183.75712733 -96.69156223 184.58557042 -96.69233333 185.43911786 C-96.69386496 187.12261442 -96.69540331 188.80611098 -96.6969483 190.48960753 C-96.71064542 206.24245871 -96.70525525 221.9952601 -96.69376308 237.74811013 C-96.68383312 252.12697605 -96.69677225 266.50571325 -96.72069728 280.88455932 C-96.74513981 295.68716208 -96.75468354 310.48970501 -96.74804455 325.29232752 C-96.74456382 333.58752031 -96.74670822 341.88261418 -96.76429558 350.1777916 C-96.77908222 357.23891099 -96.77956921 364.29986179 -96.76222467 371.36097811 C-96.75376515 374.95611702 -96.75143959 378.55095558 -96.76687622 382.14607811 C-96.90134987 415.89053979 -88.734118 444.13174682 -64.99967957 468.94819641 C-37.72230238 495.19695742 -5.09696833 499.57935045 31.26960754 499.51948547 C34.04385704 499.52110022 36.81809993 499.52569066 39.59234619 499.53010559 C46.31539711 499.53895138 53.03840311 499.53709912 59.76145571 499.53128031 C65.23102508 499.52674436 70.70058195 499.52615923 76.17015266 499.52832794 C77.34247868 499.52878764 77.34247868 499.52878764 78.53848805 499.52925663 C80.12672134 499.52989615 81.71495463 499.53054457 83.30318791 499.53120181 C98.16087326 499.5368911 113.01853383 499.53036947 127.87621511 499.51960108 C140.59394686 499.51066861 153.31164208 499.51221783 166.02937317 499.5214386 C180.83612164 499.53216911 195.64284846 499.53634006 210.44960028 499.53021407 C212.03195766 499.52957705 213.61431505 499.5289483 215.19667244 499.52832794 C215.97500355 499.52801939 216.75333465 499.52771084 217.55525155 499.52739294 C223.01066516 499.52567419 228.4660649 499.52856334 233.92147636 499.53328705 C240.58074073 499.53892697 247.23995801 499.53731467 253.89921706 499.52672556 C257.28961898 499.52151007 260.6798787 499.52043813 264.07028961 499.52602386 C300.45783531 499.58041806 331.53308105 493.61745894 358.18782043 467.26069641 C363.36981715 461.99094121 367.85836303 456.56397525 371.75032043 450.26069641 C372.24532043 449.53366516 372.74032043 448.80663391 373.25032043 448.05757141 C385.27925451 429.63826611 388.91542815 407.98175413 388.8840332 386.37734985 C388.88629876 385.21966022 388.88856432 384.06197059 388.89089853 382.86919945 C388.89610375 379.68269426 388.89688857 376.49622488 388.89570415 373.30971682 C388.89549893 369.86239832 388.90103039 366.41508804 388.90576172 362.96777344 C388.9140429 356.22366447 388.91681541 349.47956424 388.9173741 342.7354506 C388.91785048 337.24906977 388.91991134 331.7626918 388.92307472 326.27631187 C388.93187456 310.69551878 388.93649517 295.11473255 388.93574425 279.53393696 C388.93570429 278.6952251 388.93566434 277.85651324 388.93562317 276.99238586 C388.93558229 276.15264094 388.93554141 275.31289602 388.93549929 274.44770428 C388.93509306 260.84642341 388.94465851 247.24517025 388.95876154 233.64389739 C388.97315339 219.65282287 388.98003017 205.66176185 388.97916776 191.67067975 C388.97883675 183.82598683 388.98154161 175.98132296 388.99234581 168.13663673 C389.00148789 161.4563664 389.00359582 154.7761383 388.99683639 148.09586439 C388.9935897 144.69346605 388.99455138 141.29121406 389.00218964 137.88881302 C389.06579667 107.5801235 386.03108189 78.42500794 365.75032043 54.26069641 C364.70424622 53.00772766 364.70424622 53.00772766 363.63703918 51.72944641 C345.62407743 30.99694337 321.46278734 16.81723965 293.88581848 14.13624573 C293.03190616 14.0531189 292.17799383 13.96999207 291.29820538 13.88434625 C279.43505028 12.84483162 267.54322152 12.98137881 255.64485168 13.00190735 C252.97487419 12.99919118 250.30490768 12.99569776 247.63493347 12.99128723 C241.18461268 12.98247119 234.73433887 12.98428006 228.28401637 12.99011251 C223.0338991 12.99466005 217.78379483 12.99522867 212.53367615 12.99306488 C211.40572906 12.99260518 211.40572906 12.99260518 210.25499517 12.9921362 C208.72660247 12.99149664 207.19820978 12.99084821 205.66981709 12.99019101 C191.39379751 12.98451054 177.11780376 12.99100955 162.84178841 13.00179175 C150.63648148 13.01072517 138.43121262 13.00917248 126.22590637 12.99995422 C111.99516901 12.98921101 97.76445419 12.98505965 83.53371334 12.99117875 C82.0114638 12.99181574 80.48921426 12.99244448 78.96696472 12.99306488 C78.2183125 12.99337343 77.46966029 12.99368198 76.69832164 12.99399988 C71.46464191 12.99571472 66.23097668 12.99283813 60.99729919 12.98810577 C54.60470171 12.98245164 48.21215323 12.98410733 41.81956124 12.99466726 C38.56838515 12.99986381 35.31730555 13.00097829 32.06612778 12.99536896 C4.28867698 12.95189773 -19.66494619 14.5259799 -44.24967957 28.26069641 Z " fill="#4DCA86" transform="translate(110.24967956542969,-0.2606964111328125)"/>
</svg>
